<mxfile host="app.diagrams.net" modified="2022-02-18T06:34:58.055Z" agent="5.0 (Windows NT 10.0; Win64; x64) AppleWebKit/537.36 (KHTML, like Gecko) Chrome/96.0.4664.110 Safari/537.36" etag="OyyPry3lYEt239c8eSWi" version="16.6.1" type="github">
  <diagram id="C5RBs43oDa-KdzZeNtuy" name="Page-1">
    <mxGraphModel dx="1422" dy="762" grid="1" gridSize="10" guides="1" tooltips="1" connect="1" arrows="1" fold="1" page="1" pageScale="1" pageWidth="827" pageHeight="1169" math="0" shadow="0">
      <root>
        <mxCell id="WIyWlLk6GJQsqaUBKTNV-0" />
        <mxCell id="WIyWlLk6GJQsqaUBKTNV-1" parent="WIyWlLk6GJQsqaUBKTNV-0" />
        <mxCell id="SlBGUYgSB35LvdmmTBgy-12" style="edgeStyle=orthogonalEdgeStyle;rounded=0;orthogonalLoop=1;jettySize=auto;html=1;entryX=0.5;entryY=1;entryDx=0;entryDy=0;" edge="1" parent="WIyWlLk6GJQsqaUBKTNV-1" source="SlBGUYgSB35LvdmmTBgy-5" target="SlBGUYgSB35LvdmmTBgy-10">
          <mxGeometry relative="1" as="geometry" />
        </mxCell>
        <mxCell id="SlBGUYgSB35LvdmmTBgy-5" value="DB" style="shape=cylinder3;whiteSpace=wrap;html=1;boundedLbl=1;backgroundOutline=1;size=15;" vertex="1" parent="WIyWlLk6GJQsqaUBKTNV-1">
          <mxGeometry x="354" y="545" width="60" height="80" as="geometry" />
        </mxCell>
        <mxCell id="SlBGUYgSB35LvdmmTBgy-11" style="edgeStyle=orthogonalEdgeStyle;rounded=0;orthogonalLoop=1;jettySize=auto;html=1;exitX=0.5;exitY=1;exitDx=0;exitDy=0;entryX=0;entryY=0.5;entryDx=0;entryDy=0;entryPerimeter=0;" edge="1" parent="WIyWlLk6GJQsqaUBKTNV-1" source="SlBGUYgSB35LvdmmTBgy-6" target="SlBGUYgSB35LvdmmTBgy-5">
          <mxGeometry relative="1" as="geometry" />
        </mxCell>
        <mxCell id="SlBGUYgSB35LvdmmTBgy-6" value="edit-FE" style="rounded=0;whiteSpace=wrap;html=1;" vertex="1" parent="WIyWlLk6GJQsqaUBKTNV-1">
          <mxGeometry x="140" y="370" width="120" height="60" as="geometry" />
        </mxCell>
        <mxCell id="SlBGUYgSB35LvdmmTBgy-10" value="ADMIN / H5" style="whiteSpace=wrap;html=1;aspect=fixed;" vertex="1" parent="WIyWlLk6GJQsqaUBKTNV-1">
          <mxGeometry x="570" y="360" width="80" height="80" as="geometry" />
        </mxCell>
        <mxCell id="SlBGUYgSB35LvdmmTBgy-14" style="edgeStyle=orthogonalEdgeStyle;rounded=0;orthogonalLoop=1;jettySize=auto;html=1;entryX=1;entryY=1;entryDx=0;entryDy=0;" edge="1" parent="WIyWlLk6GJQsqaUBKTNV-1" source="SlBGUYgSB35LvdmmTBgy-13" target="SlBGUYgSB35LvdmmTBgy-6">
          <mxGeometry relative="1" as="geometry" />
        </mxCell>
        <mxCell id="SlBGUYgSB35LvdmmTBgy-15" style="edgeStyle=orthogonalEdgeStyle;rounded=0;orthogonalLoop=1;jettySize=auto;html=1;exitX=1;exitY=0.5;exitDx=0;exitDy=0;entryX=0;entryY=1;entryDx=0;entryDy=0;" edge="1" parent="WIyWlLk6GJQsqaUBKTNV-1" source="SlBGUYgSB35LvdmmTBgy-13" target="SlBGUYgSB35LvdmmTBgy-10">
          <mxGeometry relative="1" as="geometry" />
        </mxCell>
        <mxCell id="SlBGUYgSB35LvdmmTBgy-13" value="组件库" style="ellipse;whiteSpace=wrap;html=1;aspect=fixed;" vertex="1" parent="WIyWlLk6GJQsqaUBKTNV-1">
          <mxGeometry x="344" y="430" width="80" height="80" as="geometry" />
        </mxCell>
        <mxCell id="SlBGUYgSB35LvdmmTBgy-16" value="生成 JSON" style="text;html=1;align=center;verticalAlign=middle;resizable=0;points=[];autosize=1;strokeColor=none;fillColor=none;" vertex="1" parent="WIyWlLk6GJQsqaUBKTNV-1">
          <mxGeometry x="225" y="560" width="70" height="20" as="geometry" />
        </mxCell>
        <mxCell id="SlBGUYgSB35LvdmmTBgy-17" value="获取 json" style="text;html=1;align=center;verticalAlign=middle;resizable=0;points=[];autosize=1;strokeColor=none;fillColor=none;" vertex="1" parent="WIyWlLk6GJQsqaUBKTNV-1">
          <mxGeometry x="640" y="510" width="60" height="20" as="geometry" />
        </mxCell>
      </root>
    </mxGraphModel>
  </diagram>
</mxfile>
